<svg version="1.0" viewBox="0 0 383.9 209.5" width="383.9" height="209.5" xmlns="http://www.w3.org/2000/svg"><path d="M183.6 119.6l-14.9-20.5c-4.3 2.7-7.2 8.1-7.2 13.1 0 7.9 4.6 12.5 11.9 12.5 4.5 0 7.3-2.1 10.2-5.1zm-9.8-43.4c0 4.5 1.6 7.4 4.4 11.6 5.1-2.7 7.6-6.5 7.6-11.7 0-3.5-1.8-7.1-5.6-7.1-4 0-6.4 3.3-6.4 7.2zm16 50.3c-5.9 4.7-13 5.8-18.5 5.8-13.4 0-24.2-7.2-24.5-19.3-.2-10.6 9.7-18 17.8-20.4-2.5-3.3-4.7-7.1-4.7-12.2 0-11.8 10-17.5 20.7-17.5 10.5 0 18.1 5.8 18.1 15 0 8-8 13-15.4 16.2l10.1 15c3.7-5.2 6.1-10.3 7.4-15.5.1-.4.4-1.1 1.8-1.1h16.2c.9 0 2-.1 1.3 1.8l-1.9 4.4c-.4.9-1 1.3-1.9 1.3h-2.2c-1.8 0-2.4 1-3.5 2.6 0 0-2.3 3.8-4 6.2-2.6 3.7-3.3 4.9-7.4 9 0 0 3.2 5.4 9.8 5.4h2.9c.5 0 2.1-.2 1.3 1.6l-2 4.7c-.3.7-.6 1.3-1.9 1.3h-6.5s-8.2.6-13-4.3zm103.1 4.3L271 58.2l-29.1 72.6zm81 54.1v10.4c0 1.7-1.1 2.7-2.8 2.8h-76.9c-1.7 0-2.7-1.1-2.7-2.7V185c0-1.7 1.1-2.7 2.7-2.7l6.4-.2c5-.1 6.2-2.5 6.3-4.8 0-1-.2-2-.4-2.8-.5-2.1-2.1-7-2.1-7s-4.5-14.5-7.3-22.4h-60.9L226 170.2c-1.1 2.6-1.5 4.6-1.5 6.2 0 5.3 5 5.6 9.8 5.6l5.8.1c1.6 0 2.7 1 2.7 2.7v10.4c0 1.7-1 2.7-2.7 2.8h-52c-1.6 0-2.7-1-2.7-2.7v-10.4c0-1.7 1-2.7 2.7-2.7l1.8-.1s5.6.2 8.7-1.4c3.2-1.6 4.4-3.6 5.8-6.8l66.8-160.3c.7-1.8 2.1-2.4 3.6-2.4h21.3c1.8 0 2.9.9 3.4 2.4 6.1 17.4 55.8 159.5 55.8 159.6 2.4 6.7 4.7 8.9 12.6 9h3.3c1.6-.1 2.7 1 2.7 2.7zm-218.7-37v47.4c0 1.7-1.1 2.7-2.7 2.7h-10.9c-1.1 0-1.9-.3-2.6-1.7-.6-1.4-1.8-3.1-4.3-3.1-6 0-16.8 6.3-40.8 6.3-54.4 0-83.9-45-83.9-94.4C10 46.7 45.4 10 93.6 10c15.3 0 23.8 3.1 28.9 5.2 4.1 1.9 5.9 3.1 8.6 3.1 3.7 0 4.8-2.1 6.1-4.9.8-1.6 1.3-2.2 2.6-2.2h10.8c1.6 0 2.7 1.1 2.7 2.8v47.4c0 1.7-1 2.7-2.7 2.7H140c-1.5 0-2.3-.6-2.7-2.5-4-22.3-12-35.8-36.9-35.8-31.4 0-39 48.6-39 72.6 0 36.5 4.1 85.3 40.3 85.3 26.2 0 34-14.9 37.3-36.1.4-2.1 1.7-2.4 2.7-2.4h10.7c1.6-.1 2.8.9 2.8 2.7z" fill="#010202"/></svg>