<svg version="1.1" id="Vrstva_1" xmlns="http://www.w3.org/2000/svg" x="0" y="0" viewBox="0 0 341.3 111.8" xml:space="preserve"><style>.st0{fill-rule:evenodd;clip-rule:evenodd;fill:#eabb23}.st1{fill:#1f305a}.st2{fill:#21315a}</style><path class="st0" d="M154.4 16.9c-.6-.8-.6-1.5.1-2.1.7-.7 2.1-.8 3-.3.8.5.9 1.2.5 2 1 .1 2.2.1 2.1 1.4-.1 1.2-1.3 1.3-2.4 1.4.6 2.1 1.4 3.9 3.1 5.3 1.9 1.5 4.4 1.2 5.5-1 .9-1.7 1.4-3.7 1.9-5.6.2-.8.2-1.6.3-2.4-.4 0-.7-.1-1.1-.1-.2-1.1.2-2 1-2.6.9-.8.5-1.6.1-2.3-.3-.5-1-.9-1.5-1-.8-.1-1.4.6-1.5 1.4-.2 1.9-1.5 2.8-3.4 3.5 1.2-1.9.6-3.3-.3-4.8-.8-1.5-.4-2.7 1.3-3.2 1.4-.4 2.9-.4 4.4-.6-.6-1.6.4-2.7 1.6-3.8.7-.7 1.2-1.5 1.7-2.2.8.9 1.6 1.9 2.5 2.8 1 1 1.3 2.1.8 3.4 1.3 0 2.6-.1 3.8 0 .6.1 1.2.5 1.7.9.7.5.9 1.2.6 2-.1.3-.3.7-.5 1-.8 1.3-1.1 2.7-.1 4.1-1.7-.2-3.2-1.5-3.3-3.1-.1-1-.5-1.6-1.4-1.6-.5 0-1.3.3-1.5.7-.4.7-.9 1.6 0 2.5.6.6.9 1.6 1.4 2.5-.7.1-1.1.1-1.5.2.3 2.8.7 5.5 2.1 7.9 1.4 2.4 4 2.7 6 .8 1.4-1.3 2.2-3 2.7-4.9-1-.2-2.3-.2-2.3-1.6 0-1.1 1-1.3 2.1-1.2-.3-.9-.4-1.7.6-2.2.9-.4 2.3-.2 3 .4.5.6.5 1.1 0 2 .8.3 2 .6 1.6 1.8-.4 1.2-1.5 1-2.6.9.1 2.3.5 4.5 2.1 6.2 1.6 1.7 3.9 1.6 5.5-.3 2.1-2.3 3.3-5.2 4.2-8.1.7-2.1-1.6-4.1-3.8-3.5l-.9.3c.8-2.1 2.2-2.3 6.4-1.1-1.1-3.1 1.8-4.2 3-6.1 1.9 1.9 2.4 5.1 1.1 7.5-.4.8-1 1.7-1.7 2.1-1.8 1.1-2.2 2.8-2.6 4.7-.7 3.4-1.5 6.7-2.4 10.2-17.7-4.1-35.3-4-53 0-.8-3.6-1.7-7.1-2.5-10.6 0-.2-.1-.4-.1-.5-.2-1.4-.8-2.4-2-3.3-3.4-2.7-3.8-6.7-1.2-10 3.2 2.8 3.3 2.9 3.4 6.2 2.2-.9 4.5-1.8 6.3 1-.8-.1-1.4-.3-2-.3-1.5 0-2.1.6-2.6 2-.5 1.3-.3 2.3.3 3.4 1.1 2.1 2.1 4.4 3.6 6.3 1.9 2.4 4.6 2 6.3-.6.8-1.4 1.3-3.1 1.3-5.1-1 0-2.1.2-2.5-1.1-.2-.7.4-1.2 1.7-1.6"/><path class="st0" d="M196.3 37c-1.2 1.9.8 2.7 1.3 4.2-.7.4-1.5.8-2.3 1.2-.6.3-.8 1.1-.2 1.5.6.5 1 1.1.6 1.9-.4.8-1.2.9-2 .8-2-.4-3.9-.8-5.9-1.1-4.9-.9-9.9-1.3-14.9-1.4-8.2-.2-16.3.6-24.3 2.5-.5.1-1.2.1-1.7-.1-.9-.4-1-1.5-.2-2.3.9-.9.8-1.3-.3-1.9-.7-.3-1.3-.7-2-1.1.5-.7.9-1.3 1.3-1.9.8-1 .5-1.9-.7-2.4-.4-.2-.9-.7-1-1.1-.1-.4.3-.9.5-1.3s.4-.8.7-1.1c.2-.2.4-.4.7-.4 11.1-2.4 22.4-3.5 33.7-2.4 5.6.5 11.2 1.6 16.8 2.5.3 0 .5.5.8.8.1.2.2.4.4.5.7.4 1.1 1.1.7 1.7-.3.5-1 .7-1.5 1-.4-.1-.5-.1-.5-.1m-21.4 0c-2.8-2.8-5.9-2.7-7.9.1 1.7 2.5 6.4 2.4 7.9-.1m8.5 2.5c1 0 1.9-.8 1.9-1.8s-.9-1.9-1.9-1.9c-1 0-1.9.8-1.9 1.7-.2 1.1.8 2 1.9 2m-22.8-1.9c0-1-.8-1.8-1.8-1.8-1.1 0-2 .9-2 1.9 0 1 .9 1.7 1.9 1.7 1.1.1 1.9-.8 1.9-1.8"/><path class="st1" d="M35.5 60.3c-.4 0-1.1.1-2 .4-.9.2-1.5.5-1.9.7-.5.4-.9 1.1-1.1 2.2-.2 1.1-.3 2.5-.3 4.1v23.7h-2L8.6 64.9v16.7c0 1.9.1 3.3.4 4.3.2 1 .6 1.7 1.1 2.1.4.3 1.1.6 2.2.9 1.1.3 1.8.4 2.2.5V91H1.1v-1.6c.4 0 1.1-.2 2.1-.4 1-.3 1.6-.5 1.8-.7.5-.4.9-1.1 1.1-2 .2-.9.3-2.4.3-4.5v-16c0-.7-.1-1.4-.4-2.1-.2-.7-.6-1.2-1-1.6-.5-.5-1.3-.9-2.2-1.3-.9-.4-1.7-.6-2.3-.6v-1.6h9.3L28 83.4V67.9c0-1.9-.1-3.3-.4-4.4-.2-1-.6-1.7-1.1-2-.4-.3-1.1-.6-2.1-.8-1-.3-1.7-.4-2.2-.5v-1.6h13.2v1.7zM61.7 90.7l-7.4.5-.3-.4V88h-.1l-1.2 1.2c-.5.4-1 .8-1.6 1.2-.7.4-1.3.7-2 .9-.6.2-1.5.3-2.7.3-2 0-3.5-.7-4.6-2-1-1.3-1.6-3.2-1.6-5.7V73.2c0-.5-.1-1-.3-1.4s-.5-.7-.9-1c-.3-.2-.6-.3-1-.4-.4-.1-.9-.1-1.3-.2v-1.5l7.5-.5.3.3v15.7c0 1.6.4 2.9 1.1 3.7.7.8 1.6 1.2 2.6 1.2.8 0 1.6-.1 2.2-.4.7-.3 1.2-.6 1.6-.9.4-.3.8-.7 1.1-1 .3-.4.6-.7.7-1V73.1c0-.5-.1-.9-.3-1.3-.2-.4-.5-.7-.9-1-.3-.2-.7-.3-1.2-.3s-1.1-.1-1.8-.1v-1.5l8.2-.5.3.3v17.9c0 .5.1 1 .3 1.3.2.4.5.7.9.9.3.2.6.3 1 .3.4.1.8.1 1.3.1v1.5zM103 91.1H92v-1.5c.4 0 .7-.1 1.1-.1.4 0 .7-.1.9-.2.4-.1.7-.4.9-.7.2-.3.3-.8.3-1.3V75.6c0-1.6-.4-2.8-1.1-3.7-.7-.9-1.6-1.3-2.7-1.3-.7 0-1.4.1-2.1.3s-1.3.5-1.8 1c-.4.3-.8.7-1.1 1.1-.3.4-.5.7-.7 1v13c0 .5.1 1 .3 1.3s.5.6.9.8c.4.1.7.2.9.3s.7.1 1.1.1V91H78.3v-1.5c.4 0 .7-.1 1-.1.3 0 .6-.1.9-.2.4-.1.7-.4.9-.7s.3-.8.3-1.3V75.6c0-1.6-.4-2.8-1.1-3.7-.7-.9-1.6-1.3-2.7-1.3-.7 0-1.5.1-2.1.4-.7.2-1.3.6-1.8 1-.4.3-.8.7-1.1 1.1-.3.4-.5.7-.7.9v13c0 .5.1 1 .3 1.3.2.4.5.6 1 .8.3.2.6.3 1 .3.3.1.7.1 1.1.2v1.5H64.4v-1.5c.4 0 .7-.1 1.1-.1.4 0 .7-.1 1-.2.4-.1.7-.4.9-.7.2-.3.3-.8.3-1.3v-14c0-.5-.1-.9-.3-1.3s-.5-.7-.9-1c-.3-.2-.6-.3-1.1-.4-.4-.1-.9-.2-1.3-.2v-1.5l7.5-.5.3.3v3.2h.2c.4-.4.8-.8 1.4-1.3s1.1-.9 1.5-1.3c.5-.4 1.2-.7 2-.9.8-.2 1.7-.4 2.6-.4 1.5 0 2.7.4 3.8 1.2 1.1.8 1.8 1.7 2.3 2.8l1.4-1.4c.4-.4 1-.8 1.7-1.3.6-.4 1.3-.7 2-1 .8-.2 1.7-.4 2.6-.4 1.9 0 3.4.6 4.5 1.9 1.1 1.2 1.7 3.2 1.7 5.8V87c0 .5.1 1 .3 1.3.2.3.5.6.9.8.4.1.7.2 1 .3.3.1.7.1 1.2.1v1.6zM116.6 91.1h-10.9v-1.5c.4 0 .7-.1 1.1-.1.4 0 .7-.1 1-.2.4-.1.7-.4.9-.7.2-.3.3-.8.3-1.3v-14c0-.5-.1-.9-.3-1.3-.2-.4-.5-.7-.9-1-.3-.2-.7-.3-1.3-.5-.5-.1-1.1-.2-1.5-.2v-1.5l8-.5.3.3V87c0 .5.1 1 .3 1.3s.5.6 1 .8c.3.1.7.2 1 .3.3.1.7.1 1.1.2v1.5zm-2.9-31.7c0 .9-.3 1.6-.9 2.3s-1.3 1-2.1 1-1.5-.3-2-.9c-.6-.6-.9-1.3-.9-2.1s.3-1.6.9-2.2c.6-.6 1.2-.9 2-.9.9 0 1.6.3 2.1.9.6.4.9 1.1.9 1.9zM134.2 80c.6.5 1.1 1.2 1.4 1.9.3.7.5 1.6.5 2.6 0 2.1-.8 3.8-2.3 5.1-1.6 1.3-3.6 2-6.1 2-1.3 0-2.5-.2-3.6-.7s-1.9-.9-2.4-1.3l-.5 1.5h-1.7l-.2-7.8h1.6c.1.6.4 1.3.8 2.1s.9 1.5 1.4 2.2c.6.7 1.3 1.2 2.1 1.7s1.8.7 2.8.7c1.5 0 2.6-.3 3.4-1 .8-.7 1.2-1.6 1.2-2.9 0-.6-.1-1.2-.4-1.7-.3-.5-.6-.9-1.1-1.2-.5-.4-1.1-.7-1.9-.9s-1.5-.6-2.4-.8c-.7-.2-1.5-.5-2.4-.9-.9-.4-1.6-.8-2.3-1.3-.7-.5-1.2-1.2-1.6-2s-.6-1.7-.6-2.7c0-1.8.7-3.4 2.1-4.7 1.4-1.3 3.2-1.9 5.5-1.9.9 0 1.8.1 2.7.3s1.7.5 2.3.8l.5-1.2h1.6l.3 7.2h-1.6c-.3-1.6-1-2.9-2.1-4s-2.3-1.5-3.9-1.5c-1.2 0-2.2.3-2.9.9s-1.1 1.4-1.1 2.3c0 .7.1 1.3.4 1.7s.6.8 1.1 1.2c.5.3 1 .6 1.7.9.7.3 1.5.6 2.6.9 1 .3 2 .7 2.8 1.1s1.7.9 2.3 1.4zM178.1 91.1h-11v-1.5c.4 0 .7-.1 1.1-.1.4 0 .7-.1.9-.2.4-.1.7-.4.9-.7.2-.3.3-.8.3-1.3V75.6c0-1.6-.4-2.8-1.1-3.7-.7-.9-1.6-1.3-2.7-1.3-.7 0-1.4.1-2.1.3s-1.3.5-1.8 1c-.4.3-.8.7-1.1 1.1-.3.4-.5.7-.7 1v13c0 .5.1 1 .3 1.3s.5.6.9.8c.4.1.7.2.9.3s.7.1 1.1.1V91h-10.7v-1.5c.4 0 .7-.1 1-.1.3 0 .6-.1.9-.2.4-.1.7-.4.9-.7s.3-.8.3-1.3V75.6c0-1.6-.4-2.8-1.1-3.7-.7-.9-1.6-1.3-2.7-1.3-.7 0-1.5.1-2.1.4-.7.2-1.3.6-1.8 1-.4.3-.8.7-1.1 1.1-.3.4-.5.7-.7.9v13c0 .5.1 1 .3 1.3.2.4.5.6 1 .8.3.2.6.3 1 .3.3.1.7.1 1.1.2v1.5h-10.9v-1.5c.4 0 .7-.1 1.1-.1.4 0 .7-.1 1-.2.4-.1.7-.4.9-.7.2-.3.3-.8.3-1.3v-14c0-.5-.1-.9-.3-1.3s-.5-.7-.9-1c-.3-.2-.6-.3-1.1-.4-.4-.1-.9-.2-1.3-.2v-1.5l7.5-.5.3.3v3.2h.2c.4-.4.8-.8 1.4-1.3s1.1-.9 1.5-1.3c.5-.4 1.2-.7 2-.9.8-.2 1.7-.4 2.6-.4 1.5 0 2.7.4 3.8 1.2 1.1.8 1.8 1.7 2.3 2.8l1.4-1.4c.4-.4 1-.8 1.7-1.3.6-.4 1.3-.7 2-1 .8-.2 1.7-.4 2.6-.4 1.9 0 3.4.6 4.5 1.9 1.1 1.2 1.7 3.2 1.7 5.8V87c0 .5.1 1 .3 1.3s.5.6.9.8c.3.1.7.2 1 .3.3.1.7.1 1.2.1v1.6zM202.1 90.7c-.7.3-1.3.5-1.9.6s-1.2.2-1.8.2c-1.2 0-2.1-.3-2.8-.8-.7-.6-1.2-1.4-1.4-2.4h-.1c-1 1.1-2.1 1.9-3.2 2.5-1.1.6-2.5.9-4.1.9-1.7 0-3.1-.5-4.2-1.6S181 87.7 181 86c0-.9.1-1.6.4-2.3.2-.7.6-1.3 1.1-1.9.4-.5.9-.9 1.5-1.2.6-.4 1.2-.6 1.8-.9.7-.3 2.1-.7 4.2-1.4s3.5-1.2 4.2-1.6v-2.3c0-.2 0-.6-.1-1.1-.1-.6-.3-1.1-.5-1.6-.3-.6-.7-1.1-1.3-1.5-.6-.4-1.3-.6-2.4-.6-.7 0-1.4.1-2 .4-.6.2-1 .5-1.3.7 0 .3.1.8.2 1.3.1.6.2 1.1.2 1.6s-.2 1-.7 1.5c-.5.4-1.1.7-2 .7-.8 0-1.3-.3-1.7-.8-.4-.5-.5-1.1-.5-1.8s.2-1.4.7-2 1.1-1.2 1.9-1.7c.7-.4 1.5-.8 2.5-1.1s1.9-.4 2.9-.4c1.3 0 2.4.1 3.3.3 1 .2 1.8.6 2.6 1.1.8.6 1.4 1.3 1.8 2.3s.6 2.2.6 3.7c0 2.2 0 4.1-.1 5.8 0 1.7-.1 3.5-.1 5.5 0 .6.1 1.1.3 1.4.2.4.5.6.9.9.2.1.6.2 1.1.2h1.5v1.5zm-7.9-12.1c-1.3.4-2.4.8-3.4 1.1-1 .4-1.9.8-2.7 1.4-.8.5-1.4 1.1-1.8 1.8-.4.7-.7 1.6-.7 2.5 0 1.3.3 2.2 1 2.8.7.6 1.5.9 2.5.9 1.1 0 2-.3 2.9-.8s1.5-1.1 2.1-1.9l.1-7.8zM218.3 90.1c-1 .4-1.9.8-2.8 1-.9.3-2 .4-3.2.4-1.9 0-3.2-.5-4-1.4-.8-1-1.2-2.3-1.2-4V70.8H203v-2.2h4.2v-7h4.2v7h6.5v2.2h-6.4v12.6c0 .9 0 1.7.1 2.4s.2 1.2.5 1.7c.2.4.6.8 1.1 1s1.1.3 2 .3c.4 0 .9 0 1.7-.1.7-.1 1.3-.2 1.6-.3v1.7zM231.4 91.1h-10.9v-1.5c.4 0 .7-.1 1.1-.1.4 0 .7-.1 1-.2.4-.1.7-.4.9-.7.2-.3.3-.8.3-1.3v-14c0-.5-.1-.9-.3-1.3s-.5-.7-.9-1c-.3-.2-.7-.3-1.3-.5-.5-.1-1.1-.2-1.5-.2v-1.5l8-.5.3.3V87c0 .5.1 1 .3 1.3s.5.6 1 .8c.3.1.7.2 1 .3.3.1.7.1 1.1.2v1.5zm-2.8-31.7c0 .9-.3 1.6-.9 2.3-.6.6-1.3 1-2.1 1s-1.5-.3-2-.9c-.6-.6-.9-1.3-.9-2.1s.3-1.6.9-2.2c.6-.6 1.2-.9 2-.9.9 0 1.6.3 2.1.9.6.4.9 1.1.9 1.9zM258.1 91.1h-6.8c-1.2-1.7-2.5-3.6-3.8-5.5-1.4-2-2.8-3.9-4.2-5.7l-1.9 1.7v5.3c0 .5.1 1 .3 1.4.2.4.5.6 1 .8.4.2.7.3 1.1.3s.7.1 1.2.2v1.5h-11v-1.5c.3 0 .7-.1 1.1-.1.4 0 .7-.1 1-.2.4-.1.7-.4 1-.7s.3-.8.3-1.3V61c0-.6-.1-1.1-.4-1.6-.2-.5-.5-.9-.9-1.1-.3-.2-.8-.4-1.5-.5-.7-.1-1.2-.1-1.6-.2v-1.5l8.3-.5.3.3v23.8c1.2-1.2 2.5-2.5 3.9-3.8s2.5-2.6 3.5-3.6c.1-.1.3-.3.4-.5.1-.2.2-.4.2-.5 0-.4-.3-.7-1-.9-.7-.2-1.3-.3-1.9-.4v-1.5h9.9V70c-1.3.4-2.4.9-3.4 1.4s-1.7 1.1-2.3 1.5c-.4.3-.9.8-1.6 1.5-.7.7-1.6 1.6-2.8 2.7 1.2 1.5 2.7 3.4 4.2 5.5 1.6 2.1 2.7 3.7 3.4 4.7.7.9 1.3 1.5 1.8 1.8.5.3 1.3.4 2.3.5v1.5zM280.6 90.7c-.7.3-1.3.5-1.9.6s-1.2.2-1.8.2c-1.2 0-2.1-.3-2.8-.8-.7-.6-1.2-1.4-1.4-2.4h-.1c-1 1.1-2.1 1.9-3.2 2.5-1.1.6-2.5.9-4.1.9-1.7 0-3.1-.5-4.2-1.6s-1.6-2.4-1.6-4.1c0-.9.1-1.6.4-2.3.2-.7.6-1.3 1.1-1.9.4-.5.9-.9 1.5-1.2.6-.4 1.2-.6 1.8-.9.7-.3 2.1-.7 4.2-1.4s3.5-1.2 4.2-1.6v-2.3c0-.2 0-.6-.1-1.1-.1-.6-.3-1.1-.5-1.6-.3-.6-.7-1.1-1.3-1.5-.6-.4-1.3-.6-2.4-.6-.7 0-1.4.1-2 .4-.6.2-1 .5-1.3.7 0 .3.1.8.2 1.3.1.6.2 1.1.2 1.6s-.2 1-.7 1.5c-.5.4-1.1.7-2 .7-.8 0-1.3-.3-1.7-.8-.4-.5-.5-1.1-.5-1.8s.2-1.4.7-2 1.1-1.2 1.9-1.7c.7-.4 1.5-.8 2.5-1.1s1.9-.4 2.9-.4c1.3 0 2.4.1 3.3.3 1 .2 1.8.6 2.6 1.1.8.6 1.4 1.3 1.8 2.3s.6 2.2.6 3.7c0 2.2 0 4.1-.1 5.8 0 1.7-.1 3.5-.1 5.5 0 .6.1 1.1.3 1.4.2.4.5.6.9.9.2.1.6.2 1.1.2h1.5v1.5zm-7.9-12.1c-1.3.4-2.4.8-3.4 1.1-1 .4-1.9.8-2.7 1.4-.8.5-1.4 1.1-1.8 1.8-.4.7-.7 1.6-.7 2.5 0 1.3.3 2.2 1 2.8.7.6 1.5.9 2.5.9 1.1 0 2-.3 2.9-.8s1.5-1.1 2.1-1.9l.1-7.8zM297.7 91.8c-1.9 0-3.8-.4-5.6-1.1-1.8-.8-3.3-1.9-4.7-3.3-1.4-1.4-2.4-3.2-3.2-5.2-.8-2.1-1.2-4.4-1.2-7s.4-4.9 1.2-7.1 1.9-3.9 3.3-5.5c1.4-1.5 3-2.7 4.9-3.5s3.9-1.2 6-1.2c1.6 0 3 .2 4.3.6 1.3.4 2.5 1 3.7 1.7l.9-1.6h1.8l.2 11.6h-1.9c-.2-1.1-.6-2.3-1.1-3.7-.5-1.3-1.1-2.4-1.7-3.3-.7-1-1.6-1.8-2.6-2.4-1-.6-2.2-.9-3.4-.9-1.5 0-2.8.3-4.1 1-1.3.7-2.4 1.6-3.3 2.9-.9 1.2-1.6 2.8-2.1 4.7-.5 1.9-.8 4-.8 6.4 0 2.1.3 4 .8 5.7.5 1.7 1.3 3.3 2.2 4.6 1 1.3 2.1 2.3 3.5 3 1.3.7 2.8 1.1 4.5 1.1 1.2 0 2.4-.2 3.4-.6 1-.4 1.9-.9 2.7-1.5.8-.7 1.4-1.4 2-2.3.6-.9 1-1.8 1.4-2.8l1.7.8c-1.3 3.2-3 5.5-5.2 6.9-2 1.4-4.6 2-7.6 2zM336.5 76c.9.6 1.7 1.5 2.4 2.5.6 1 .9 2.3.9 3.8s-.3 2.8-1 3.9-1.5 2-2.6 2.7c-1 .7-2.2 1.2-3.5 1.6-1.3.4-2.6.5-4 .5h-15.4v-1.6c.4 0 .9-.1 1.6-.2.7-.1 1.2-.2 1.5-.4.5-.2.8-.5 1-.9.2-.4.3-.8.3-1.4V63.4c0-.5-.1-1-.3-1.4-.2-.4-.5-.7-1-1-.5-.2-1-.4-1.5-.5s-1-.2-1.4-.2v-1.6h15c1.2 0 2.3.1 3.3.3 1.1.2 2.1.6 3 1.2.9.5 1.6 1.3 2.2 2.2s.9 2 .9 3.3c0 1.1-.2 2.2-.6 3-.4.9-1 1.7-1.7 2.3-.7.6-1.5 1.1-2.4 1.5s-1.9.7-2.9 1v.2c.9.1 2 .3 3.1.7 1.2.4 2.2.9 3.1 1.6zm-5.5-4.9c.6-.7 1-1.4 1.2-2.2s.3-1.7.3-2.8c0-1.8-.5-3.2-1.5-4.2s-2.5-1.5-4.6-1.5h-1.8c-.7 0-1.4 0-1.9.1V73h2.9c1.2 0 2.3-.2 3.2-.5.9-.3 1.6-.8 2.2-1.4zm3.1 10.3c0-1.9-.6-3.5-1.9-4.7-1.3-1.2-3.1-1.9-5.5-1.9h-2.5c-.7 0-1.2 0-1.5.1v11.4c0 1 .4 1.7 1.2 2.2s1.9.7 3.2.7c2.3 0 4-.7 5.2-2 1.2-1.2 1.8-3.2 1.8-5.8z"/><path class="st2" d="M0 35.7h119.7v.5H0zM221.5 35.7h119.7v.5H221.5zM.6 108.6h340.7v3.1H.6z"/></svg>