<svg xmlns="http://www.w3.org/2000/svg" width="1088" height="1024" viewBox="0 0 1088 1024"><path d="M1088 976V368c0-8.832-7.168-16-16-16s-16 7.168-16 16v608c0 8.832-7.168 16-16 16H48c-8.832 0-16-7.168-16-16V368c0-8.832-7.168-16-16-16s-16 7.168-16 16v608c0 26.464 21.536 48 48 48h992c26.464 0 48-21.536 48-48zM144 736c-8.832 0-16 7.168-16 16s7.168 16 16 16h48v112c0 8.832 7.168 16 16 16s16-7.168 16-16V768h192v112c0 8.832 7.168 16 16 16s16-7.168 16-16V768h192v112c0 8.832 7.168 16 16 16s16-7.168 16-16V768h192v112c0 8.832 7.168 16 16 16s16-7.168 16-16V768h48c8.832 0 16-7.168 16-16s-7.168-16-16-16h-48V576h48c8.832 0 16-7.168 16-16s-7.168-16-16-16h-48V400c0-8.832-7.168-16-16-16s-16 7.168-16 16v144H672V400c0-8.832-7.168-16-16-16s-16 7.168-16 16v144H448V400c0-8.832-7.168-16-16-16s-16 7.168-16 16v144H224V400c0-8.832-7.168-16-16-16s-16 7.168-16 16v144h-48c-8.832 0-16 7.168-16 16s7.168 16 16 16h48v160h-48zm720-160v160H672V576h192zm-224 0v160H448V576h192zm-416 0h192v160H224V576zM912 96h136c2.784 0 8 0 8 16v144H32V112c0-8.832 7.168-16 16-16h128c8.832 0 16-7.168 16-16s-7.168-16-16-16H48C21.536 64 0 85.536 0 112v160c0 8.832 7.168 16 16 16h1056c8.832 0 16-7.168 16-16V112c0-35.392-20.672-48-40-48H912c-8.832 0-16 7.168-16 16s7.168 16 16 16zm-192 0c8.832 0 16-7.168 16-16s-7.168-16-16-16H368c-8.832 0-16 7.168-16 16s7.168 16 16 16h352zm-432 48V16c0-8.832-7.168-16-16-16s-16 7.168-16 16v128c0 8.832 7.168 16 16 16s16-7.168 16-16zm528 16c8.832 0 16-7.168 16-16V16c0-8.832-7.168-16-16-16s-16 7.168-16 16v128c0 8.832 7.168 16 16 16z"/></svg>