<svg xmlns="http://www.w3.org/2000/svg" width="1312" height="1024" viewBox="0 0 1312 1024"><path d="M295.648 1021.664c.288.192.672.096.96.288 2.336 1.184 4.768 2.048 7.392 2.048 1.408 0 2.816-.192 4.224-.576L656 928.512l347.776 94.912c1.408.384 2.816.576 4.224.576 2.624 0 5.056-.864 7.36-2.08.32-.16.672-.096.96-.288l288-176c6.112-3.744 8.992-11.136 7.04-18.016l-159.488-560c-1.312-4.704-4.736-8.544-9.28-10.432a16.299 16.299 0 00-13.952.832l-158.784 89.088c-7.68 4.32-10.432 14.08-6.112 21.792 4.32 7.744 14.048 10.464 21.824 6.112l141.088-79.2L1277.28 824.64 1020.8 981.408l-60.928-487.392c-1.088-8.8-9.376-14.912-17.888-13.888-8.736 1.088-14.976 9.088-13.888 17.856l61.024 488.288L672 899.712v-87.36c0-8.832-7.168-16-16-16s-16 7.168-16 16v87.36l-317.152 86.56 61.024-488.288c1.088-8.768-5.12-16.768-13.888-17.856-8.704-1.024-16.768 5.088-17.888 13.888L291.2 981.408 34.72 824.672l150.624-528.8 141.088 79.2c7.744 4.288 17.472 1.568 21.824-6.112 4.32-7.712 1.568-17.44-6.112-21.792l-158.816-89.12c-4.256-2.4-9.344-2.72-13.92-.832-4.544 1.888-7.968 5.696-9.28 10.432L.64 827.648a15.932 15.932 0 007.04 18.016l287.968 176zm349.504-273.888A15.984 15.984 0 00656 752c3.84 0 7.68-1.376 10.752-4.128C677.408 738.176 928 508.224 928 272 928 119.456 808.544 0 656 0S384 119.456 384 272c0 232.128 250.496 465.92 261.152 475.776zM656 32c136.8 0 240 103.168 240 240 0 195.104-191.776 394.784-239.904 441.824C608.064 666.24 416 463.936 416 272c0-136.832 103.2-240 240-240zm144 240c0-79.392-64.608-144-144-144s-144 64.608-144 144 64.608 144 144 144 144-64.608 144-144zM656 384c-61.76 0-112-50.24-112-112s50.24-112 112-112 112 50.24 112 112-50.24 112-112 112z"/></svg>