<svg xmlns="http://www.w3.org/2000/svg" width="260" height="260" viewBox="0 0 350 130"><path fill="#001A4B" d="M15 9.6h320v110.7H15z"/><path fill-rule="evenodd" clip-rule="evenodd" fill="#FFF" d="M286.6 51.7h-97.3l.7-2.6h97.3l-.7 2.6m6 1.8c-.1.2 0 .4.3.4h.1l-.1.4H291l.1-.4h.1c.3 0 .4-.1.5-.4l.6-2.3c.1-.2 0-.3-.3-.4h-.1l.1-.4h1.6c.7 0 1.1.1 1.3.2.2.2.3.5.2.8-.1.5-.5.8-1.2 1l.5.9c.2.3.3.5.5.5l-.1.4h-1.1l-.9-1.7h-.1l-.1 1 .5-1.4c.7 0 1.1-.2 1.2-.6.1-.4-.1-.6-.6-.6-.3 0-.4 0-.5.3l-.2.9h.1l-.5 1.4M80.9 59.3c.4-1.7.6-3.2 0-4.4-.8-1.6-2.4-3-7-3.1-3.1-.1-6.9 1.8-7.5 4.3-.6 2.1.4 3.5 3.2 4.1l5.7 1.6c6.5 1.8 8.9 6.1 7.9 10.1-1.5 6-6.7 10.5-16.9 10.5-3.3 0-6.8-.7-9.5-2.6L55.4 82H53l3.2-12.1h2c1.2 6.3 4.9 8.9 10.3 8.9 3.9 0 7.6-2.4 8.4-5.5.6-2.2-.6-3.5-4-4.5l-6.7-2c-3.2-.9-4.5-2.2-5.6-3.5-1.2-1.6-1.6-3.6-1.1-5.8 1.2-5.3 5.8-9.1 14.4-9.1 2.9 0 6.8.7 9.2 2.1l1.1-1.7h2.4l-3.3 10.6-2.4-.1m32.7-.1h-2.2c1.1-5.2-2.6-6.9-6.3-6.9-4.9 0-10.3 5-12.2 13.1-1.9 8.4.5 12.6 5.3 13 4.1.3 8.4-2.2 10.6-6.3h2.5c-.9 2.2-2.6 4.7-4.4 6.4-3.3 3-6 3.8-9.5 3.8-8.6 0-13.1-6.9-10.8-16.6 2.3-10 9.5-17.4 19.5-17.4 1.7 0 4.4.5 7.3 2.3l1.1-1.7h2.2l-3.1 10.3m9.1 10.5l-3.1 4.9c-.5.8-.9 1.7-1 2.1-.3 1.2.3 1.7 2.9 2.1h.5l-.7 2.7h-12.2l.7-2.7c3-.8 3.6-1.3 7.2-6.7l13-23.4h6.6l3.3 24.5c.7 4.8.6 5 3 5.5l.6.1-.7 2.7h-14.5l.7-2.7c3.5-.4 3.9-.6 4.2-1.7.1-.4.1-1.3 0-1.9l-.8-5.6h-9.7m8.3-14.8l-6.4 11.8h7.6L131 54.8m45.7.4c.6-2.2-.1-3.1-2.6-3.4h-.6l.7-2.7h11.9l-.7 2.7h-.6c-2.7.2-3.8 1.1-4.4 3.4l-7 26.4H169l-9.3-27.8-5.7 21.7c-.6 2.2.1 3.1 2.6 3.4h.6l-.7 2.7h-11.7l.7-2.7h.6c2.7-.2 3.6-1.1 4.2-3.4l5.4-20.3c.6-2.2-.1-3.1-2.6-3.4h-.6l.7-2.7h12.1l7.4 21.4 4-15.3m114.1-2.9c0 1.6 1.3 2.9 2.8 2.9 1.5 0 2.8-1.3 2.8-2.9 0-1.6-1.3-2.9-2.8-2.9-1.6 0-2.8 1.3-2.8 2.9m6.2 0c0 1.9-1.5 3.4-3.4 3.4s-3.4-1.6-3.4-3.4c0-1.9 1.5-3.4 3.5-3.4 1.7 0 3.3 1.5 3.3 3.4m-46.9 24.5c-.5 1.8 0 2.4 2.1 2.7h.3l-.6 2.1h-11.1l.6-2.1h.4c2.2-.3 3-.8 3.5-2.7l2.3-8.6c.2-.8.2-1.2 0-1.5-.3-.3-1.2-.7-2-.7h-.6l.6-2.1c3.1-.4 5.2-.8 6.6-1.2h1.7l-3.8 14.1m6.4-19.9c-.4 1.7-2.2 3.1-3.9 3.1s-2.6-1.3-2.2-3c.5-1.7 2-3 3.8-3.1 1.7-.2 2.8 1.2 2.3 3m18.3 18.3c-.5 1.8-.5 2.2-.2 2.8.3.6.8.9 1.7.9 1 0 2.1-.4 3.3-1.1l-.9 3.2c-1.7.8-3.3 1.2-5.2 1.2-3.3 0-4.9-1.8-4.2-4.5l3.3-12.5h-3.2l.7-2.5c2.7.1 5.7-2.5 7.6-6.4h2l-1.7 6.4h5.5l-.7 2.5h-5.5l-2.5 10m-14.2-18.7c4.6-.7 5-.8 6.6-1.5h1.7l-5.8 21.8c-.3 1-.2 1.7.2 2 .4.3 1.3.7 1.9.7h.3l-.6 2.1h-11.1l.6-2.1h.4c2.2-.2 3-.9 3.5-2.7l4.3-16.1c.2-.8.2-1.2.1-1.5-.3-.3-1.3-.6-2-.6h-.6l.5-2.1m-25.8 11.1c.4-1.6.1-2-2.1-2.1h-.5l.6-2.1c2.6-.2 3.9-.5 6.8-1.1h1.4l-3.9 14.6c-.5 1.8.1 2.5 2.1 2.7h.3l-.6 2.1H231l.6-2.1c-2.5 1.6-5.7 2.6-8.2 2.6-3.3 0-4.7-2-3.8-5.3l2.5-9.3c.2-.8.2-1.2 0-1.5-.3-.3-1.1-.6-2-.6h-.6l.6-2.1c2.9-.2 4.2-.4 6.7-1.1h1.5l-3.5 13c-.5 1.8-.7 2.8-.4 3.2.2.5 1.2.3 2 .3 1.8 0 3.7-.7 6.1-2.4l2.3-8.8m-22.6 17.2c-.5 1.8-.1 2.4 2.1 2.7h.3l-.6 2.1h-11l.6-2.1h.3c2.3-.3 3.1-.9 3.6-2.7l1.2-4.4c-2.1 1.2-4 1.7-6.1 1.7-5.1 0-7.6-4.1-6-10 1.6-5.8 6.2-9.9 11.4-9.9 2.1 0 3.6.5 5.1 1.8l1.2-1.8h4l-6.1 22.6m.1-18.1c-1.1-1.2-2.2-1.7-3.7-1.7-3.1 0-5.6 2.6-6.8 7.1-1.2 4.6 0 6.6 3.2 6.6 1.3 0 3.3-.7 4.5-1.6l2.8-10.4"/></svg>